<svg width="245" height="21" viewBox="0 0 245 21" fill="none" xmlns="http://www.w3.org/2000/svg">
<g filter="url(#filter0_d_2042_1521)">
<path d="M11.07 0.210109V9.91211H10.118V1.03611H4.95199V9.91211H3.99999V0.210109H11.07ZM14.144 9.91211V0.210109H19.744V1.03611H15.096V4.41011H19.24V5.22211H15.096V9.08611H20.108V9.91211H14.144ZM24.9196 0.126109C26.2916 0.126109 27.3136 0.387442 27.9856 0.910109C28.6576 1.43278 28.9936 2.17478 28.9936 3.13611C28.9936 3.68678 28.8956 4.15811 28.6996 4.55011C28.5036 4.93278 28.2236 5.24544 27.8596 5.48811C27.4956 5.72144 27.0476 5.89411 26.5156 6.00611C25.9929 6.10878 25.4003 6.16011 24.7376 6.16011H23.4216V9.91211H22.4696V0.392109C22.8056 0.298775 23.1976 0.233442 23.6456 0.196109C24.1029 0.149442 24.5276 0.126109 24.9196 0.126109ZM24.9616 0.952109C24.6069 0.952109 24.3036 0.966109 24.0516 0.994109C23.8089 1.01278 23.5989 1.03144 23.4216 1.05011V5.33411H24.6256C25.1389 5.33411 25.6009 5.30611 26.0116 5.25011C26.4316 5.18478 26.7863 5.07278 27.0756 4.91411C27.3743 4.74611 27.6029 4.51744 27.7616 4.22811C27.9203 3.93878 27.9996 3.57011 27.9996 3.12211C27.9996 2.69278 27.9109 2.33811 27.7336 2.05811C27.5656 1.77811 27.3369 1.55878 27.0476 1.40011C26.7676 1.23211 26.4456 1.11544 26.0816 1.05011C25.7176 0.984776 25.3443 0.952109 24.9616 0.952109ZM33.6388 9.99611C33.4801 9.99611 33.2934 9.98678 33.0788 9.96811C32.8734 9.95878 32.6588 9.94011 32.4348 9.91211C32.2201 9.89344 32.0148 9.87011 31.8188 9.84211C31.6228 9.80478 31.4548 9.76744 31.3148 9.73011V0.392109C31.4828 0.345442 31.6694 0.308109 31.8748 0.280109C32.0801 0.242776 32.2901 0.214776 32.5048 0.196109C32.7288 0.168109 32.9434 0.149442 33.1488 0.140109C33.3634 0.130775 33.5594 0.126109 33.7368 0.126109C34.2594 0.126109 34.7541 0.168109 35.2208 0.252109C35.6968 0.336109 36.1121 0.476109 36.4668 0.672109C36.8214 0.868109 37.1014 1.12944 37.3068 1.45611C37.5214 1.77344 37.6288 2.17011 37.6288 2.64611C37.6288 3.16878 37.4934 3.61678 37.2228 3.99011C36.9614 4.35411 36.6068 4.60611 36.1588 4.74611C36.4388 4.81144 36.6954 4.90478 36.9288 5.02611C37.1621 5.14744 37.3674 5.30611 37.5448 5.50211C37.7221 5.68878 37.8574 5.92211 37.9508 6.20211C38.0534 6.47278 38.1048 6.79944 38.1048 7.18211C38.1048 8.09678 37.7408 8.79678 37.0128 9.28211C36.2848 9.75811 35.1601 9.99611 33.6388 9.99611ZM32.2668 5.26411V9.08611C32.4068 9.10478 32.6168 9.12811 32.8968 9.15611C33.1768 9.17478 33.4614 9.18411 33.7508 9.18411C34.1801 9.18411 34.5954 9.15611 34.9968 9.10011C35.4074 9.04411 35.7668 8.94144 36.0748 8.79211C36.3828 8.64278 36.6301 8.43744 36.8168 8.17611C37.0034 7.91478 37.0968 7.57878 37.0968 7.16811C37.0968 6.79478 37.0314 6.48678 36.9008 6.24411C36.7701 5.99211 36.5834 5.79611 36.3408 5.65611C36.0981 5.50678 35.7994 5.40411 35.4448 5.34811C35.0994 5.29211 34.7121 5.26411 34.2828 5.26411H32.2668ZM32.2668 4.45211H34.1148C34.4601 4.45211 34.7868 4.42878 35.0948 4.38211C35.4028 4.32611 35.6688 4.23278 35.8928 4.10211C36.1261 3.96211 36.3081 3.78011 36.4388 3.55611C36.5694 3.32278 36.6348 3.02878 36.6348 2.67411C36.6348 2.35678 36.5648 2.09078 36.4248 1.87611C36.2848 1.65211 36.0841 1.47011 35.8228 1.33011C35.5708 1.19011 35.2674 1.09211 34.9128 1.03611C34.5581 0.970776 34.1661 0.938109 33.7368 0.938109C33.3914 0.938109 33.0974 0.947442 32.8548 0.966109C32.6214 0.984776 32.4254 1.00811 32.2668 1.03611V4.45211ZM49.4011 5.05411C49.4011 5.88478 49.2798 6.61744 49.0371 7.25211C48.7945 7.88678 48.4631 8.41878 48.0431 8.84811C47.6325 9.26811 47.1518 9.58544 46.6011 9.80011C46.0505 10.0148 45.4671 10.1221 44.8511 10.1221C44.2351 10.1221 43.6518 10.0148 43.1011 9.80011C42.5505 9.58544 42.0651 9.26811 41.6451 8.84811C41.2345 8.41878 40.9078 7.88678 40.6651 7.25211C40.4225 6.61744 40.3011 5.88478 40.3011 5.05411C40.3011 4.22344 40.4225 3.49544 40.6651 2.87011C40.9078 2.23544 41.2345 1.70811 41.6451 1.28811C42.0651 0.858775 42.5505 0.536775 43.1011 0.322109C43.6518 0.107442 44.2351 0.000109315 44.8511 0.000109315C45.4671 0.000109315 46.0505 0.107442 46.6011 0.322109C47.1518 0.536775 47.6325 0.858775 48.0431 1.28811C48.4631 1.70811 48.7945 2.23544 49.0371 2.87011C49.2798 3.49544 49.4011 4.22344 49.4011 5.05411ZM48.3931 5.05411C48.3931 4.40078 48.3091 3.81744 48.1411 3.30411C47.9731 2.78144 47.7351 2.33811 47.4271 1.97411C47.1191 1.61011 46.7458 1.33478 46.3071 1.14811C45.8778 0.952109 45.3925 0.854109 44.8511 0.854109C44.3098 0.854109 43.8198 0.952109 43.3811 1.14811C42.9518 1.33478 42.5831 1.61011 42.2751 1.97411C41.9671 2.33811 41.7291 2.78144 41.5611 3.30411C41.3931 3.81744 41.3091 4.40078 41.3091 5.05411C41.3091 5.70744 41.3931 6.29544 41.5611 6.81811C41.7291 7.33144 41.9671 7.77011 42.2751 8.13411C42.5831 8.49811 42.9518 8.77811 43.3811 8.97411C43.8198 9.17011 44.3098 9.26811 44.8511 9.26811C45.3925 9.26811 45.8778 9.17011 46.3071 8.97411C46.7458 8.77811 47.1191 8.49811 47.4271 8.13411C47.7351 7.77011 47.9731 7.33144 48.1411 6.81811C48.3091 6.29544 48.3931 5.70744 48.3931 5.05411ZM52.0949 9.91211V0.210109H57.6949V1.03611H53.0469V4.41011H57.1909V5.22211H53.0469V9.08611H58.0589V9.91211H52.0949ZM71.2361 0.210109V9.91211H70.2841V1.03611H65.1181V9.91211H64.1661V0.210109H71.2361ZM83.0181 5.05411C83.0181 5.88478 82.8967 6.61744 82.6541 7.25211C82.4114 7.88678 82.0801 8.41878 81.6601 8.84811C81.2494 9.26811 80.7687 9.58544 80.2181 9.80011C79.6674 10.0148 79.0841 10.1221 78.4681 10.1221C77.8521 10.1221 77.2687 10.0148 76.7181 9.80011C76.1674 9.58544 75.6821 9.26811 75.2621 8.84811C74.8514 8.41878 74.5247 7.88678 74.2821 7.25211C74.0394 6.61744 73.9181 5.88478 73.9181 5.05411C73.9181 4.22344 74.0394 3.49544 74.2821 2.87011C74.5247 2.23544 74.8514 1.70811 75.2621 1.28811C75.6821 0.858775 76.1674 0.536775 76.7181 0.322109C77.2687 0.107442 77.8521 0.000109315 78.4681 0.000109315C79.0841 0.000109315 79.6674 0.107442 80.2181 0.322109C80.7687 0.536775 81.2494 0.858775 81.6601 1.28811C82.0801 1.70811 82.4114 2.23544 82.6541 2.87011C82.8967 3.49544 83.0181 4.22344 83.0181 5.05411ZM82.0101 5.05411C82.0101 4.40078 81.9261 3.81744 81.7581 3.30411C81.5901 2.78144 81.3521 2.33811 81.0441 1.97411C80.7361 1.61011 80.3627 1.33478 79.9241 1.14811C79.4947 0.952109 79.0094 0.854109 78.4681 0.854109C77.9267 0.854109 77.4367 0.952109 76.9981 1.14811C76.5687 1.33478 76.2001 1.61011 75.8921 1.97411C75.5841 2.33811 75.3461 2.78144 75.1781 3.30411C75.0101 3.81744 74.9261 4.40078 74.9261 5.05411C74.9261 5.70744 75.0101 6.29544 75.1781 6.81811C75.3461 7.33144 75.5841 7.77011 75.8921 8.13411C76.2001 8.49811 76.5687 8.77811 76.9981 8.97411C77.4367 9.17011 77.9267 9.26811 78.4681 9.26811C79.0094 9.26811 79.4947 9.17011 79.9241 8.97411C80.3627 8.77811 80.7361 8.49811 81.0441 8.13411C81.3521 7.77011 81.5901 7.33144 81.7581 6.81811C81.9261 6.29544 82.0101 5.70744 82.0101 5.05411ZM89.7439 10.1221C89.1185 10.1221 88.5352 10.0101 87.9939 9.78611C87.4619 9.56211 86.9952 9.23544 86.5939 8.80611C86.2019 8.37678 85.8892 7.84944 85.6559 7.22411C85.4319 6.58944 85.3199 5.86611 85.3199 5.05411C85.3199 4.24211 85.4412 3.52344 85.6839 2.89811C85.9359 2.26344 86.2672 1.73144 86.6779 1.30211C87.0885 0.872776 87.5645 0.550776 88.1059 0.336109C88.6472 0.112109 89.2119 0.000109315 89.7999 0.000109315C90.1639 0.000109315 90.4952 0.0234426 90.7939 0.0701092C91.0925 0.116776 91.3539 0.177442 91.5779 0.252109C91.8019 0.317442 91.9932 0.387442 92.1519 0.462109C92.3105 0.527442 92.4319 0.588109 92.5159 0.644109L92.2079 1.47011C91.9745 1.33011 91.6759 1.19478 91.3119 1.06411C90.9572 0.924109 90.5139 0.854109 89.9819 0.854109C89.3752 0.854109 88.8432 0.956776 88.3859 1.16211C87.9379 1.36744 87.5599 1.65678 87.2519 2.03011C86.9439 2.40344 86.7105 2.84678 86.5519 3.36011C86.4025 3.87344 86.3279 4.44278 86.3279 5.06811C86.3279 5.71211 86.4025 6.29544 86.5519 6.81811C86.7105 7.33144 86.9392 7.77011 87.2379 8.13411C87.5365 8.49811 87.9005 8.77811 88.3299 8.97411C88.7685 9.17011 89.2679 9.26811 89.8279 9.26811C90.4439 9.26811 90.9572 9.21211 91.3679 9.10011C91.7879 8.97878 92.1052 8.85744 92.3199 8.73611L92.5859 9.54811C92.5205 9.59478 92.4085 9.65078 92.2499 9.71611C92.0912 9.77211 91.8905 9.83278 91.6479 9.89811C91.4052 9.96344 91.1252 10.0148 90.8079 10.0521C90.4905 10.0988 90.1359 10.1221 89.7439 10.1221ZM94.8031 9.91211V0.210109H100.403V1.03611H95.7551V4.41011H99.8991V5.22211H95.7551V9.08611H100.767V9.91211H94.8031ZM114.133 9.91211H103.129V0.210109H104.081V9.08611H108.155V0.210109H109.107V9.08611H113.181V0.210109H114.133V9.08611H115.043V12.5021H114.133V9.91211ZM117.32 9.91211V0.210109H122.92V1.03611H118.272V4.41011H122.416V5.22211H118.272V9.08611H123.284V9.91211H117.32ZM131.861 0.210109H132.813V9.91211H131.861V5.25011H126.597V9.91211H125.645V0.210109H126.597V4.42411H131.861V0.210109ZM135.899 9.91211V0.210109H136.837V8.10611C137.126 7.59278 137.495 6.99078 137.943 6.30011C138.4 5.60944 138.89 4.90478 139.413 4.18611C139.935 3.45811 140.467 2.74878 141.009 2.05811C141.559 1.35811 142.073 0.742109 142.549 0.210109H143.305V9.91211H142.367V1.73611C142.087 2.05344 141.779 2.43144 141.443 2.87011C141.107 3.30878 140.757 3.78011 140.393 4.28411C140.038 4.77878 139.679 5.29211 139.315 5.82411C138.951 6.34678 138.605 6.86011 138.279 7.36411C137.952 7.85878 137.649 8.32544 137.369 8.76411C137.098 9.20278 136.874 9.58544 136.697 9.91211H135.899ZM146.384 9.91211V0.210109H151.984V1.03611H147.336V4.41011H151.48V5.22211H147.336V9.08611H152.348V9.91211H146.384ZM159.408 4.78811V9.07211C159.585 9.09078 159.795 9.11411 160.038 9.14211C160.29 9.16078 160.593 9.17011 160.948 9.17011C161.368 9.17011 161.769 9.13744 162.152 9.07211C162.534 9.00678 162.866 8.89011 163.146 8.72211C163.435 8.55411 163.664 8.33011 163.832 8.05011C164.009 7.77011 164.098 7.41544 164.098 6.98611C164.098 6.53811 164.014 6.17411 163.846 5.89411C163.687 5.60478 163.454 5.38078 163.146 5.22211C162.847 5.05411 162.483 4.94211 162.054 4.88611C161.624 4.82078 161.144 4.78811 160.612 4.78811H159.408ZM160.738 3.97611C161.428 3.97611 162.044 4.03211 162.586 4.14411C163.127 4.25611 163.58 4.43344 163.944 4.67611C164.317 4.90944 164.602 5.21744 164.798 5.60011C164.994 5.98278 165.092 6.44011 165.092 6.97211C165.092 7.98944 164.737 8.75011 164.028 9.25411C163.318 9.74878 162.278 9.99611 160.906 9.99611C160.514 9.99611 160.089 9.97278 159.632 9.92611C159.184 9.88878 158.792 9.82344 158.456 9.73011V0.210109H164.224V1.03611H159.408V3.97611H160.738ZM167.588 9.91211V0.210109H173.188V1.03611H168.54V4.41011H172.684V5.22211H168.54V9.08611H173.552V9.91211H167.588ZM179.713 10.1221C179.088 10.1221 178.504 10.0101 177.963 9.78611C177.431 9.56211 176.964 9.23544 176.563 8.80611C176.171 8.37678 175.858 7.84944 175.625 7.22411C175.401 6.58944 175.289 5.86611 175.289 5.05411C175.289 4.24211 175.41 3.52344 175.653 2.89811C175.905 2.26344 176.236 1.73144 176.647 1.30211C177.058 0.872776 177.534 0.550776 178.075 0.336109C178.616 0.112109 179.181 0.000109315 179.769 0.000109315C180.133 0.000109315 180.464 0.0234426 180.763 0.0701092C181.062 0.116776 181.323 0.177442 181.547 0.252109C181.771 0.317442 181.962 0.387442 182.121 0.462109C182.28 0.527442 182.401 0.588109 182.485 0.644109L182.177 1.47011C181.944 1.33011 181.645 1.19478 181.281 1.06411C180.926 0.924109 180.483 0.854109 179.951 0.854109C179.344 0.854109 178.812 0.956776 178.355 1.16211C177.907 1.36744 177.529 1.65678 177.221 2.03011C176.913 2.40344 176.68 2.84678 176.521 3.36011C176.372 3.87344 176.297 4.44278 176.297 5.06811C176.297 5.71211 176.372 6.29544 176.521 6.81811C176.68 7.33144 176.908 7.77011 177.207 8.13411C177.506 8.49811 177.87 8.77811 178.299 8.97411C178.738 9.17011 179.237 9.26811 179.797 9.26811C180.413 9.26811 180.926 9.21211 181.337 9.10011C181.757 8.97878 182.074 8.85744 182.289 8.73611L182.555 9.54811C182.49 9.59478 182.378 9.65078 182.219 9.71611C182.06 9.77211 181.86 9.83278 181.617 9.89811C181.374 9.96344 181.094 10.0148 180.777 10.0521C180.46 10.0988 180.105 10.1221 179.713 10.1221ZM191.842 0.210109V9.91211H190.89V1.03611H185.724V9.91211H184.772V0.210109H191.842ZM197.8 1.03611V1.31611C197.8 2.34278 197.763 3.33211 197.688 4.28411C197.623 5.23611 197.46 6.14611 197.198 7.01411C197.077 7.41544 196.923 7.79344 196.736 8.14811C196.559 8.50278 196.34 8.81544 196.078 9.08611C195.817 9.35678 195.509 9.57611 195.154 9.74411C194.809 9.91211 194.408 10.0054 193.95 10.0241L193.852 9.21211C194.17 9.17478 194.45 9.10011 194.692 8.98811C194.944 8.86678 195.164 8.70811 195.35 8.51211C195.546 8.31611 195.714 8.08278 195.854 7.81211C196.004 7.53211 196.139 7.21011 196.26 6.84611C196.503 6.09011 196.662 5.23611 196.736 4.28411C196.82 3.33211 196.862 2.26344 196.862 1.07811V0.210109H201.916V9.91211H200.964V1.03611H197.8ZM211.516 9.91211C211.339 9.43611 211.171 8.97878 211.012 8.54011C210.853 8.10144 210.699 7.67211 210.55 7.25211H205.832C205.673 7.67211 205.515 8.10144 205.356 8.54011C205.197 8.97878 205.034 9.43611 204.866 9.91211H203.872C204.245 8.90411 204.595 7.96611 204.922 7.09811C205.249 6.22078 205.566 5.39478 205.874 4.62011C206.191 3.83611 206.504 3.08478 206.812 2.36611C207.12 1.64744 207.447 0.928775 207.792 0.210109H208.632C208.977 0.928775 209.304 1.64744 209.612 2.36611C209.92 3.08478 210.228 3.83611 210.536 4.62011C210.853 5.39478 211.175 6.22078 211.502 7.09811C211.829 7.96611 212.183 8.90411 212.566 9.91211H211.516ZM208.184 1.30211C207.829 2.10478 207.484 2.92144 207.148 3.75211C206.821 4.58278 206.481 5.47878 206.126 6.44011H210.256C209.901 5.47878 209.556 4.58278 209.22 3.75211C208.884 2.92144 208.539 2.10478 208.184 1.30211ZM219.956 0.210109V1.03611H216.848V9.91211H215.896V1.03611H212.788V0.210109H219.956ZM228.242 0.210109H229.194V9.91211H228.242V5.25011H222.978V9.91211H222.026V0.210109H222.978V4.42411H228.242V0.210109ZM240.987 5.05411C240.987 5.88478 240.866 6.61744 240.623 7.25211C240.381 7.88678 240.049 8.41878 239.629 8.84811C239.219 9.26811 238.738 9.58544 238.187 9.80011C237.637 10.0148 237.053 10.1221 236.437 10.1221C235.821 10.1221 235.238 10.0148 234.687 9.80011C234.137 9.58544 233.651 9.26811 233.231 8.84811C232.821 8.41878 232.494 7.88678 232.251 7.25211C232.009 6.61744 231.887 5.88478 231.887 5.05411C231.887 4.22344 232.009 3.49544 232.251 2.87011C232.494 2.23544 232.821 1.70811 233.231 1.28811C233.651 0.858775 234.137 0.536775 234.687 0.322109C235.238 0.107442 235.821 0.000109315 236.437 0.000109315C237.053 0.000109315 237.637 0.107442 238.187 0.322109C238.738 0.536775 239.219 0.858775 239.629 1.28811C240.049 1.70811 240.381 2.23544 240.623 2.87011C240.866 3.49544 240.987 4.22344 240.987 5.05411ZM239.979 5.05411C239.979 4.40078 239.895 3.81744 239.727 3.30411C239.559 2.78144 239.321 2.33811 239.013 1.97411C238.705 1.61011 238.332 1.33478 237.893 1.14811C237.464 0.952109 236.979 0.854109 236.437 0.854109C235.896 0.854109 235.406 0.952109 234.967 1.14811C234.538 1.33478 234.169 1.61011 233.861 1.97411C233.553 2.33811 233.315 2.78144 233.147 3.30411C232.979 3.81744 232.895 4.40078 232.895 5.05411C232.895 5.70744 232.979 6.29544 233.147 6.81811C233.315 7.33144 233.553 7.77011 233.861 8.13411C234.169 8.49811 234.538 8.77811 234.967 8.97411C235.406 9.17011 235.896 9.26811 236.437 9.26811C236.979 9.26811 237.464 9.17011 237.893 8.97411C238.332 8.77811 238.705 8.49811 239.013 8.13411C239.321 7.77011 239.559 7.33144 239.727 6.81811C239.895 6.29544 239.979 5.70744 239.979 5.05411Z" fill="#858E8A"/>
</g>
<defs>
<filter id="filter0_d_2042_1521" x="0" y="0" width="244.987" height="20.5022" filterUnits="userSpaceOnUse" color-interpolation-filters="sRGB">
<feFlood flood-opacity="0" result="BackgroundImageFix"/>
<feColorMatrix in="SourceAlpha" type="matrix" values="0 0 0 0 0 0 0 0 0 0 0 0 0 0 0 0 0 0 127 0" result="hardAlpha"/>
<feOffset dy="4"/>
<feGaussianBlur stdDeviation="2"/>
<feComposite in2="hardAlpha" operator="out"/>
<feColorMatrix type="matrix" values="0 0 0 0 0 0 0 0 0 0 0 0 0 0 0 0 0 0 0.25 0"/>
<feBlend mode="normal" in2="BackgroundImageFix" result="effect1_dropShadow_2042_1521"/>
<feBlend mode="normal" in="SourceGraphic" in2="effect1_dropShadow_2042_1521" result="shape"/>
</filter>
</defs>
</svg>
